<?xml version="1.0" standalone="no"?>
<!DOCTYPE svg PUBLIC "-//W3C//DTD SVG 20010904//EN"
 "http://www.w3.org/TR/2001/REC-SVG-20010904/DTD/svg10.dtd">
<svg version="1.0" xmlns="http://www.w3.org/2000/svg"
 width="512.000000pt" height="512.000000pt" viewBox="0 0 512.000000 512.000000"
 preserveAspectRatio="xMidYMid meet">
<metadata>
Created by potrace 1.11, written by Peter Selinger 2001-2013
</metadata>
<g transform="translate(0.000000,512.000000) scale(0.100000,-0.100000)"
fill="#000000" stroke="none">
<path d="M977 4944 c-196 -35 -372 -129 -522 -279 -153 -153 -244 -326 -280
-530 -23 -132 -23 -3018 0 -3150 36 -204 127 -377 280 -530 153 -153 326 -244
530 -280 132 -23 3018 -23 3150 0 204 36 377 127 530 280 153 153 244 326 280
530 23 132 23 3018 0 3150 -36 204 -127 377 -280 530 -153 153 -326 244 -530
280 -126 22 -3036 21 -3158 -1z m790 -940 c110 -22 171 -48 252 -104 121 -85
206 -212 252 -375 32 -112 32 -278 1 -388 -56 -199 -171 -340 -344 -428 -112
-57 -163 -63 -485 -64 -291 0 -293 0 -315 23 l-23 23 -3 617 c-2 417 0 629 8
654 7 26 18 39 38 46 15 6 140 11 285 11 198 1 275 -3 334 -15z m2137 -95 c21
-16 26 -29 26 -62 l0 -42 -1302 -1302 c-899 -899 -1312 -1304 -1331 -1309 -64
-15 -122 48 -98 107 5 13 596 610 1313 1327 1171 1170 1306 1302 1334 1302 17
0 43 -9 58 -21z m-639 -1470 c19 -18 20 -36 25 -248 l5 -228 275 239 c151 132
291 246 310 255 72 32 151 -28 122 -92 -6 -13 -150 -144 -321 -292 -170 -147
-310 -272 -311 -276 -1 -5 140 -134 312 -287 172 -154 321 -293 330 -310 33
-63 -23 -122 -100 -105 -18 3 -139 105 -325 270 l-296 264 -3 -244 c-3 -238
-4 -245 -26 -267 -31 -31 -93 -31 -124 0 l-23 23 0 638 c0 608 1 640 19 659
31 36 94 36 131 1z"/>
<path d="M1270 3329 l0 -521 238 4 c219 4 242 6 297 28 82 32 121 58 181 122
94 99 137 215 137 368 1 158 -48 281 -151 384 -64 64 -150 111 -231 126 -29 5
-148 10 -262 10 l-209 0 0 -521z"/>
</g>
</svg>
