<?xml version="1.0" encoding="utf-8"?>
<!-- Generator: Adobe Illustrator 25.2.1, SVG Export Plug-In . SVG Version: 6.00 Build 0)  -->
<svg version="1.1" id="Layer_1" xmlns="http://www.w3.org/2000/svg" xmlns:xlink="http://www.w3.org/1999/xlink" x="0px" y="0px"
	 viewBox="0 0 150 16.9" style="enable-background:new 0 0 150 16.9;" xml:space="preserve">
<style type="text/css">
	.st0{fill:#FFFFFF;}
</style>
<g>
	<path class="st0" d="M11,2.9v9.1h5.7V16H6.2V2.9H11z"/>
	<path class="st0" d="M23.3,9.9c0-0.5-0.2-0.8-1.5-0.8c-1.1,0-2.6,0.2-3.5,0.6l-0.5-2.9c0.9-0.4,2.8-0.7,4.4-0.7
		c3.8,0,5.3,1.5,5.3,3.7v2.2c0,0.6,0.1,0.8,0.5,0.9l0.5,0.1l-1,3.2c0,0-0.5,0.2-1.1,0.2c-1.1-0.1-2.1-0.5-2.7-1.4h0
		c-0.5,1-1.6,1.4-2.9,1.4c-2.2,0-3.5-1.2-3.5-3c0-1.2,0.6-2.1,1.5-2.5c0.7-0.3,2.2-0.6,4.5-0.6V9.9z M23.3,12.8v-0.7
		c-0.7,0-1.5,0.1-1.7,0.2c-0.1,0.1-0.2,0.3-0.2,0.5c0,0.4,0.3,0.7,0.7,0.7C22.7,13.5,23.1,13.2,23.3,12.8z"/>
	<path class="st0" d="M37.4,9.9c-0.5-0.3-1.2-0.6-1.9-0.6c-1.3,0-2.1,0.7-2.1,1.7c0,1.1,0.8,1.7,2,1.7c0.9,0,1.7-0.4,2.1-0.6l0.8,3
		c-0.6,0.4-2,1-3.8,1c-3.8,0-5.6-2.3-5.6-5.2c0-3,2.3-5.1,5.8-5.1c1.6,0,2.8,0.5,3.5,0.9L37.4,9.9z"/>
	<path class="st0" d="M43.7,16h-4.2V0.8h4.2v4.9c0,0.8-0.1,1.6-0.1,1.6l0.1,0c0.6-1,1.7-1.5,3.2-1.5c2.2,0,3.6,1.3,3.6,3.4V16h-4.2
		v-5.5c0-0.6-0.3-1-1-1c-0.7,0-1.2,0.4-1.5,0.8V16z"/>
	<path class="st0" d="M52,0.8h4.2V16H52V0.8z"/>
	<path class="st0" d="M63.5,9.9c0-0.5-0.2-0.8-1.5-0.8c-1.1,0-2.6,0.2-3.5,0.6L58,6.7c0.9-0.4,2.8-0.7,4.4-0.7
		c3.8,0,5.3,1.5,5.3,3.7v2.2c0,0.6,0.1,0.8,0.5,0.9l0.5,0.1l-1,3.2c0,0-0.5,0.2-1.1,0.2c-1.1-0.1-2.1-0.5-2.7-1.4h0
		c-0.5,1-1.6,1.4-2.9,1.4c-2.2,0-3.5-1.2-3.5-3c0-1.2,0.6-2.1,1.5-2.5c0.7-0.3,2.2-0.6,4.5-0.6V9.9z M63.5,12.8v-0.7
		c-0.7,0-1.5,0.1-1.7,0.2c-0.1,0.1-0.2,0.3-0.2,0.5c0,0.4,0.3,0.7,0.7,0.7C62.8,13.5,63.2,13.2,63.5,12.8z"/>
	<path class="st0" d="M73.8,16h-4.2V6.1h3.2l0.7,1.5h0.1c0.6-1,1.8-1.7,3.4-1.7c2.4,0,3.7,1.3,3.7,3.4V16h-4.2v-5.5c0-0.6-0.3-1-1-1
		c-0.7,0-1.2,0.4-1.5,0.8V16z"/>
	<path class="st0" d="M86.8,15.4l0.5-3.7c1,0.4,2.8,0.9,4.4,0.9c1.5,0,2-0.4,2-0.9c0-0.3-0.1-0.5-0.5-0.6c-0.4-0.1-1.4-0.2-2.4-0.3
		c-1-0.1-2.1-0.4-2.8-0.8c-1.1-0.7-1.5-1.9-1.5-3c0-2.7,2.4-4.4,6-4.4c1.9,0,3.7,0.4,4.9,0.9L96.8,7c-1-0.4-2.5-0.7-4.1-0.7
		c-1.2,0-1.6,0.4-1.6,0.8c0,0.2,0.1,0.5,0.5,0.5c0.6,0.1,1.6,0.2,2.5,0.3c1,0.1,2,0.4,2.6,0.8c1,0.6,1.5,1.7,1.5,2.9
		c0,2.6-1.6,4.6-5.9,4.6C90.2,16.3,88.1,15.9,86.8,15.4z"/>
	<path class="st0" d="M99.4,6.1h3.2l0.7,1.4h0.1c0.6-1.1,1.6-1.6,3.1-1.6c1.5,0,2.6,0.6,3.1,1.7h0.1c0.6-1.1,1.6-1.7,3-1.7
		c2.2,0,3.4,1.2,3.4,3.4V16h-4.2v-5.7c0-0.6-0.3-0.8-0.8-0.8c-0.4,0-0.9,0.2-1.2,0.5v6h-4.2v-5.7c0-0.6-0.3-0.8-0.8-0.8
		c-0.4,0-0.9,0.2-1.2,0.5v6h-4.2V6.1z"/>
	<path class="st0" d="M119.6,1.3c1.6,0,2.4,0.8,2.4,1.9c0,1.1-0.8,1.9-2.4,1.9c-1.6,0-2.3-0.8-2.3-1.9C117.2,2.2,118,1.3,119.6,1.3z
		 M117.4,16V6.1h4.2V16H117.4z"/>
	<path class="st0" d="M128.2,9.5v2.2c0,0.8,0.4,1.1,1.1,1.1c0.4,0,1-0.1,1.1-0.2l0.2,3.1c0,0-1.1,0.4-2.7,0.4
		c-2.9,0-3.9-1.5-3.9-3.6V9.5h-1.3V6.1h1.4l2.3-2.5h1.8v2.5h2.5v3.4H128.2z"/>
	<path class="st0" d="M136,16h-4.2V0.8h4.2v4.9c0,0.8-0.1,1.6-0.1,1.6l0.1,0c0.6-1,1.7-1.5,3.2-1.5c2.2,0,3.6,1.3,3.6,3.4V16h-4.2
		v-5.5c0-0.6-0.3-1-1-1c-0.7,0-1.2,0.4-1.5,0.8V16z"/>
</g>
</svg>
