<?xml version="1.0" encoding="utf-8"?>
<!-- Generator: Adobe Illustrator 25.2.1, SVG Export Plug-In . SVG Version: 6.00 Build 0)  -->
<svg version="1.1" id="Layer_1" xmlns="http://www.w3.org/2000/svg" xmlns:xlink="http://www.w3.org/1999/xlink" x="0px" y="0px"
	 viewBox="0 0 138.7 16.9" style="enable-background:new 0 0 138.7 16.9;" xml:space="preserve">
<style type="text/css">
	.st0{fill:#FFFFFF;}
</style>
<g>
	<path class="st0" d="M2.8,4.2c0-0.3-0.2-0.4-0.4-0.4H1.5V1.6h2.6c1,0,1.4,0.4,1.4,1.4v10.2c0,0.3,0.2,0.4,0.4,0.4H9
		c0.3,0,0.4-0.2,0.4-0.4v-0.9h2.4v2.2c0,1-0.4,1.4-1.4,1.4H4.2c-1,0-1.4-0.4-1.4-1.4V4.2z"/>
	<path class="st0" d="M18.7,9.4H19V9.3c0-1.5-0.6-2-1.9-2c-0.5,0-1.4,0.1-1.4,0.7v0.5h-2.4V7.4c0-1.9,2.7-2.1,3.7-2.1
		c3.4,0,4.4,1.8,4.4,4.1v3.8c0,0.3,0.2,0.4,0.4,0.4h0.8v2.1h-2.3c-0.9,0-1.3-0.5-1.3-1.1c0-0.3,0-0.4,0-0.4h0c0,0-0.8,1.8-3.1,1.8
		c-1.8,0-3.5-1.1-3.5-3.2C12.6,9.6,17,9.4,18.7,9.4z M16.7,14c1.4,0,2.3-1.4,2.3-2.7v-0.2h-0.4c-1.3,0-3.4,0.2-3.4,1.6
		C15.2,13.4,15.7,14,16.7,14z"/>
	<path class="st0" d="M29.4,5.3c1.3,0,3.7,0.5,3.7,2.3v1.2h-2.2V8.3c0-0.6-0.8-0.8-1.5-0.8c-1.8,0-3,1.3-3,3.2
		c0,2.1,1.5,3.1,3.2,3.1c1.7,0,3-1.4,3-1.4l1.1,1.8c0,0-1.5,1.8-4.3,1.8c-3.4,0-5.5-2.4-5.5-5.3C23.8,7.8,25.9,5.3,29.4,5.3z"/>
	<path class="st0" d="M35.5,4.2c0-0.3-0.2-0.4-0.4-0.4h-0.8V1.6h2.4C37.6,1.6,38,2,38,2.9v3.6c0,0.5,0,0.9,0,0.9h0
		c0.5-1,1.7-2,3.5-2c2.3,0,3.6,1.2,3.6,3.9v4c0,0.3,0.2,0.4,0.4,0.4h0.8v2.1h-2.4c-0.9,0-1.3-0.4-1.3-1.4V9.7c0-1.2-0.3-2.1-1.6-2.1
		c-1.3,0-2.4,0.9-2.8,2.1C38,10.2,38,10.6,38,11.1v4.7h-2.5V4.2z"/>
	<path class="st0" d="M48.3,4.2c0-0.3-0.2-0.4-0.4-0.4H47V1.6h2.4c0.9,0,1.4,0.4,1.4,1.4v10.3c0,0.3,0.2,0.4,0.4,0.4H52v2.1h-2.4
		c-1,0-1.4-0.4-1.4-1.4V4.2z"/>
	<path class="st0" d="M59.2,9.4h0.3V9.3c0-1.5-0.6-2-1.9-2c-0.5,0-1.4,0.1-1.4,0.7v0.5h-2.4V7.4c0-1.9,2.7-2.1,3.7-2.1
		c3.4,0,4.4,1.8,4.4,4.1v3.8c0,0.3,0.2,0.4,0.4,0.4h0.8v2.1H61c-0.9,0-1.3-0.5-1.3-1.1c0-0.3,0-0.4,0-0.4h0c0,0-0.8,1.8-3.1,1.8
		c-1.8,0-3.5-1.1-3.5-3.2C53.1,9.6,57.6,9.4,59.2,9.4z M57.3,14c1.4,0,2.3-1.4,2.3-2.7v-0.2h-0.4c-1.3,0-3.4,0.2-3.4,1.6
		C55.7,13.4,56.2,14,57.3,14z"/>
	<path class="st0" d="M65.3,8.2c0-0.3-0.2-0.4-0.4-0.4h-0.8V5.6h2.3c0.9,0,1.3,0.4,1.3,1.1V7c0,0.2,0,0.4,0,0.4h0
		c0.4-0.9,1.5-2.1,3.6-2.1c2.3,0,3.6,1.2,3.6,3.9v4c0,0.3,0.2,0.4,0.4,0.4h0.8v2.1h-2.4c-1,0-1.4-0.4-1.4-1.4V9.7
		c0-1.2-0.3-2.1-1.6-2.1c-1.4,0-2.4,0.9-2.7,2.1c-0.1,0.4-0.2,0.9-0.2,1.4v4.7h-2.5V8.2z"/>
	<path class="st0" d="M84,12c0,0,1.5,1.7,3.4,1.7c1.1,0,2-0.6,2-1.7c0-2.4-6.7-2.2-6.7-6.6c0-2.3,2-4,4.7-4c1.7,0,4.2,0.8,4.2,2.8
		v1.3h-2.4V4.8c0-0.7-0.9-1.1-1.9-1.1c-1.2,0-2.1,0.6-2.1,1.5c0,2.4,6.7,1.9,6.7,6.6c0,2.3-1.7,4.2-4.7,4.2c-3.1,0-4.9-2.2-4.9-2.2
		L84,12z"/>
	<path class="st0" d="M94.6,8.2c0-0.3-0.2-0.4-0.4-0.4h-0.8V5.6h2.3C96.6,5.6,97,6,97,6.7V7c0,0.2,0,0.4,0,0.4h0
		c0.5-1,1.7-2.1,3.3-2.1c1.5,0,2.5,0.7,3,2.1h0c0.5-1.1,1.9-2.1,3.5-2.1c2.1,0,3.3,1.2,3.3,3.9v4c0,0.3,0.2,0.4,0.4,0.4h0.8v2.1H109
		c-1,0-1.4-0.4-1.4-1.4V9.7c0-1.2-0.2-2-1.4-2c-1.3,0-2.2,1.1-2.4,2.3c-0.1,0.4-0.2,0.8-0.2,1.3v4.5h-2.5V9.7c0-1.1-0.2-2-1.4-2
		c-1.3,0-2.1,1.1-2.5,2.4c-0.1,0.4-0.2,0.8-0.2,1.3v4.5h-2.5V8.2z"/>
	<path class="st0" d="M113.5,8.2c0-0.3-0.2-0.4-0.4-0.4h-0.8V5.6h2.4c0.9,0,1.3,0.4,1.3,1.4v6.3c0,0.3,0.2,0.4,0.4,0.4h0.8v2.1h-2.4
		c-0.9,0-1.3-0.4-1.3-1.4V8.2z M113.6,1.6h2.2v2.3h-2.2V1.6z"/>
	<path class="st0" d="M119.5,7.6h-1.3v-2h1.4V2.8h2.5v2.8h2.3v2H122v4.1c0,1.7,1.3,1.9,2,1.9c0.3,0,0.5,0,0.5,0v2.2
		c0,0-0.3,0.1-0.8,0.1c-1.4,0-4.2-0.4-4.2-3.8V7.6z"/>
	<path class="st0" d="M126.6,4.2c0-0.3-0.2-0.4-0.4-0.4h-0.8V1.6h2.4c0.9,0,1.4,0.4,1.4,1.3v3.6c0,0.5,0,0.9,0,0.9h0
		c0.5-1,1.7-2,3.5-2c2.3,0,3.6,1.2,3.6,3.9v4c0,0.3,0.2,0.4,0.4,0.4h0.8v2.1h-2.4c-0.9,0-1.3-0.4-1.3-1.4V9.7c0-1.2-0.3-2.1-1.6-2.1
		c-1.3,0-2.4,0.9-2.8,2.1c-0.1,0.4-0.2,0.8-0.2,1.3v4.7h-2.5V4.2z"/>
</g>
</svg>
